<svg id="Capa_1" enable-background="new 0 0 512 512" height="512" viewBox="0 0 512 512" width="512" xmlns="http://www.w3.org/2000/svg"><g><path d="m210.999 434.567v62.433c0 8.284 6.716 15 15 15h60.002c8.284 0 15-6.716 15-15v-62.356l-45.21-12.85z"/><path d="m351.195 306.386 28.875 12.331c5.861 2.504 12.667 1.028 16.967-3.68 4.299-4.708 5.153-11.618 2.129-17.23l-52.043-96.585 24.153 8.018c6.075 2.017 12.767-.046 16.652-5.139 3.884-5.092 4.106-12.089.554-17.418l-120.002-180.003c-2.782-4.174-7.464-6.68-12.48-6.68s-9.698 2.506-12.48 6.68l-120.002 180.003c-3.553 5.329-3.33 12.326.554 17.418 3.886 5.092 10.575 7.157 16.652 5.139l24.153-8.018-52.043 96.585c-3.024 5.612-2.17 12.523 2.129 17.23 4.3 4.708 11.106 6.183 16.967 3.68l28.875-12.331-57.746 101.01c-3.026 5.295-2.547 11.896 1.215 16.696 2.89 3.688 7.272 5.75 11.809 5.75 1.369 0 139.695-39.239 139.695-39.239l136.041 38.667c5.862 1.667 12.153-.381 15.912-5.182 3.758-4.801 4.236-11.398 1.211-16.691z"/></g></svg>