<svg xmlns="http://www.w3.org/2000/svg" xmlns:xlink="http://www.w3.org/1999/xlink" xmlns:fi="http://pattern.flaticon.com/" x="0" y="0" width="300" height="300" viewBox="0 0 700 700"><rect x="0px" y="0px" width="100%" height="100%" opacity="1" fill="rgba(255,245,157,0.5)"/><defs><g transform="matrix(0.13896383345127106 0 0 0.13896383345127106 205 312)" id="L1_32"><path d="M397.172,298.155c-0.268-2.482-1.679-4.696-3.815-5.987h-0.32c-34.64-20.8-61.36-66.88-74.88-94.16    c13.674,4.905,27.879,8.181,42.32,9.76c4.393,0.47,8.335-2.711,8.805-7.104c0.324-3.034-1.105-5.987-3.685-7.616    c-33.68-21.6-52.48-61.6-60.88-84.24c3.624,0.808,7.327,1.211,11.04,1.2c6.327,0.032,12.609-1.051,18.56-3.2    c4.103-1.638,6.102-6.293,4.464-10.396c-0.677-1.695-1.913-3.108-3.503-4.004c-32.8-18.48-53.6-86-53.76-86.72    c-1.056-3.498-4.349-5.836-8-5.68c-3.651-0.156-6.944,2.182-8,5.68c0,0.64-20.88,68.16-53.76,86.72    c-3.85,2.168-5.212,7.047-3.044,10.897c0.896,1.59,2.309,2.827,4.004,3.503c5.95,2.151,12.233,3.234,18.56,3.2    c3.74,0.015,7.47-0.387,11.12-1.2c-8,22.64-27.12,62.56-60.88,84.24c-3.801,2.253-5.055,7.16-2.802,10.961    c1.738,2.932,5.143,4.441,8.482,3.759c14.441-1.582,28.645-4.857,42.32-9.76c-7.067,14.539-15.084,28.596-24,42.08    c-24-18.24-38.16-48-44.64-65.12c2.965,0.683,5.997,1.032,9.04,1.04c5.182,0.019,10.328-0.875,15.2-2.64    c3.374-1.321,5.038-5.126,3.717-8.5c-0.555-1.418-1.587-2.599-2.917-3.34c-26.88-15.12-43.84-70.4-44.08-70.96    c-1.047-3.468-4.708-5.431-8.176-4.384c-2.103,0.635-3.749,2.281-4.384,4.384c0,0.56-17.12,56-44.08,70.96    c-3.165,1.763-4.303,5.757-2.54,8.923c0.741,1.331,1.922,2.362,3.34,2.917c4.872,1.767,10.018,2.66,15.2,2.64    c3.04,0.018,6.072-0.304,9.04-0.96c-6.88,18.56-22.24,51.28-49.84,68.96c-3.016,2.007-3.834,6.08-1.826,9.096    c1.32,1.983,3.612,3.095,5.987,2.904c11.849-1.284,23.504-3.97,34.72-8c-11.52,22.4-33.12,60.08-61.52,77.12    c-3.114,1.851-4.138,5.877-2.287,8.991c1.053,1.772,2.878,2.945,4.927,3.169c0,0,4.96,0.56,12.56,0.56    c26.062,0.4,51.798-5.82,74.8-18.08v-52.64c0-4.418,3.582-8,8-8s8,3.582,8,8v52.64c22.866,12.153,48.427,18.344,74.32,18    c8,0,12.4-0.48,12.56-0.56c3.602-0.393,6.202-3.632,5.809-7.233c-0.224-2.049-1.397-3.873-3.169-4.927    c-8.937-5.614-17.019-12.485-24-20.4c20.051-3.076,39.362-9.829,56.96-19.92v-72.88c0-4.418,3.582-8,8-8s8,3.582,8,8v72.88    c28.326,15.505,60.192,23.389,92.48,22.88c9.36,0,15.12-0.64,15.36-0.64C394.47,306.493,397.646,302.548,397.172,298.155z"/><path d="M135.757,324.007c-4.418,0-8,3.582-8,8v91.76c0,4.418,3.582,8,8,8s8-3.582,8-8v-91.76    C143.757,327.589,140.175,324.007,135.757,324.007z"/><path d="M273.837,291.607c-4.418,0-8,3.582-8,8v124.16c0,4.418,3.582,8,8,8s8-3.582,8-8v-124.16    C281.837,295.189,278.255,291.607,273.837,291.607z"/></g><g transform="matrix(0.13896383345127106 0 0 0.13896383345127106 0 261)" id="L1_33"><path d="M397.172,298.155c-0.268-2.482-1.679-4.696-3.815-5.987h-0.32c-34.64-20.8-61.36-66.88-74.88-94.16    c13.674,4.905,27.879,8.181,42.32,9.76c4.393,0.47,8.335-2.711,8.805-7.104c0.324-3.034-1.105-5.987-3.685-7.616    c-33.68-21.6-52.48-61.6-60.88-84.24c3.624,0.808,7.327,1.211,11.04,1.2c6.327,0.032,12.609-1.051,18.56-3.2    c4.103-1.638,6.102-6.293,4.464-10.396c-0.677-1.695-1.913-3.108-3.503-4.004c-32.8-18.48-53.6-86-53.76-86.72    c-1.056-3.498-4.349-5.836-8-5.68c-3.651-0.156-6.944,2.182-8,5.68c0,0.64-20.88,68.16-53.76,86.72    c-3.85,2.168-5.212,7.047-3.044,10.897c0.896,1.59,2.309,2.827,4.004,3.503c5.95,2.151,12.233,3.234,18.56,3.2    c3.74,0.015,7.47-0.387,11.12-1.2c-8,22.64-27.12,62.56-60.88,84.24c-3.801,2.253-5.055,7.16-2.802,10.961    c1.738,2.932,5.143,4.441,8.482,3.759c14.441-1.582,28.645-4.857,42.32-9.76c-7.067,14.539-15.084,28.596-24,42.08    c-24-18.24-38.16-48-44.64-65.12c2.965,0.683,5.997,1.032,9.04,1.04c5.182,0.019,10.328-0.875,15.2-2.64    c3.374-1.321,5.038-5.126,3.717-8.5c-0.555-1.418-1.587-2.599-2.917-3.34c-26.88-15.12-43.84-70.4-44.08-70.96    c-1.047-3.468-4.708-5.431-8.176-4.384c-2.103,0.635-3.749,2.281-4.384,4.384c0,0.56-17.12,56-44.08,70.96    c-3.165,1.763-4.303,5.757-2.54,8.923c0.741,1.331,1.922,2.362,3.34,2.917c4.872,1.767,10.018,2.66,15.2,2.64    c3.04,0.018,6.072-0.304,9.04-0.96c-6.88,18.56-22.24,51.28-49.84,68.96c-3.016,2.007-3.834,6.08-1.826,9.096    c1.32,1.983,3.612,3.095,5.987,2.904c11.849-1.284,23.504-3.97,34.72-8c-11.52,22.4-33.12,60.08-61.52,77.12    c-3.114,1.851-4.138,5.877-2.287,8.991c1.053,1.772,2.878,2.945,4.927,3.169c0,0,4.96,0.56,12.56,0.56    c26.062,0.4,51.798-5.82,74.8-18.08v-52.64c0-4.418,3.582-8,8-8s8,3.582,8,8v52.64c22.866,12.153,48.427,18.344,74.32,18    c8,0,12.4-0.48,12.56-0.56c3.602-0.393,6.202-3.632,5.809-7.233c-0.224-2.049-1.397-3.873-3.169-4.927    c-8.937-5.614-17.019-12.485-24-20.4c20.051-3.076,39.362-9.829,56.96-19.92v-72.88c0-4.418,3.582-8,8-8s8,3.582,8,8v72.88    c28.326,15.505,60.192,23.389,92.48,22.88c9.36,0,15.12-0.64,15.36-0.64C394.47,306.493,397.646,302.548,397.172,298.155z"/><path d="M135.757,324.007c-4.418,0-8,3.582-8,8v91.76c0,4.418,3.582,8,8,8s8-3.582,8-8v-91.76    C143.757,327.589,140.175,324.007,135.757,324.007z"/><path d="M273.837,291.607c-4.418,0-8,3.582-8,8v124.16c0,4.418,3.582,8,8,8s8-3.582,8-8v-124.16    C281.837,295.189,278.255,291.607,273.837,291.607z"/></g><g transform="matrix(0.13896383345127106 0 0 0.13896383345127106 143 197)" id="L1_34"><path d="M397.172,298.155c-0.268-2.482-1.679-4.696-3.815-5.987h-0.32c-34.64-20.8-61.36-66.88-74.88-94.16    c13.674,4.905,27.879,8.181,42.32,9.76c4.393,0.47,8.335-2.711,8.805-7.104c0.324-3.034-1.105-5.987-3.685-7.616    c-33.68-21.6-52.48-61.6-60.88-84.24c3.624,0.808,7.327,1.211,11.04,1.2c6.327,0.032,12.609-1.051,18.56-3.2    c4.103-1.638,6.102-6.293,4.464-10.396c-0.677-1.695-1.913-3.108-3.503-4.004c-32.8-18.48-53.6-86-53.76-86.72    c-1.056-3.498-4.349-5.836-8-5.68c-3.651-0.156-6.944,2.182-8,5.68c0,0.64-20.88,68.16-53.76,86.72    c-3.85,2.168-5.212,7.047-3.044,10.897c0.896,1.59,2.309,2.827,4.004,3.503c5.95,2.151,12.233,3.234,18.56,3.2    c3.74,0.015,7.47-0.387,11.12-1.2c-8,22.64-27.12,62.56-60.88,84.24c-3.801,2.253-5.055,7.16-2.802,10.961    c1.738,2.932,5.143,4.441,8.482,3.759c14.441-1.582,28.645-4.857,42.32-9.76c-7.067,14.539-15.084,28.596-24,42.08    c-24-18.24-38.16-48-44.64-65.12c2.965,0.683,5.997,1.032,9.04,1.04c5.182,0.019,10.328-0.875,15.2-2.64    c3.374-1.321,5.038-5.126,3.717-8.5c-0.555-1.418-1.587-2.599-2.917-3.34c-26.88-15.12-43.84-70.4-44.08-70.96    c-1.047-3.468-4.708-5.431-8.176-4.384c-2.103,0.635-3.749,2.281-4.384,4.384c0,0.56-17.12,56-44.08,70.96    c-3.165,1.763-4.303,5.757-2.54,8.923c0.741,1.331,1.922,2.362,3.34,2.917c4.872,1.767,10.018,2.66,15.2,2.64    c3.04,0.018,6.072-0.304,9.04-0.96c-6.88,18.56-22.24,51.28-49.84,68.96c-3.016,2.007-3.834,6.08-1.826,9.096    c1.32,1.983,3.612,3.095,5.987,2.904c11.849-1.284,23.504-3.97,34.72-8c-11.52,22.4-33.12,60.08-61.52,77.12    c-3.114,1.851-4.138,5.877-2.287,8.991c1.053,1.772,2.878,2.945,4.927,3.169c0,0,4.96,0.56,12.56,0.56    c26.062,0.4,51.798-5.82,74.8-18.08v-52.64c0-4.418,3.582-8,8-8s8,3.582,8,8v52.64c22.866,12.153,48.427,18.344,74.32,18    c8,0,12.4-0.48,12.56-0.56c3.602-0.393,6.202-3.632,5.809-7.233c-0.224-2.049-1.397-3.873-3.169-4.927    c-8.937-5.614-17.019-12.485-24-20.4c20.051-3.076,39.362-9.829,56.96-19.92v-72.88c0-4.418,3.582-8,8-8s8,3.582,8,8v72.88    c28.326,15.505,60.192,23.389,92.48,22.88c9.36,0,15.12-0.64,15.36-0.64C394.47,306.493,397.646,302.548,397.172,298.155z"/><path d="M135.757,324.007c-4.418,0-8,3.582-8,8v91.76c0,4.418,3.582,8,8,8s8-3.582,8-8v-91.76    C143.757,327.589,140.175,324.007,135.757,324.007z"/><path d="M273.837,291.607c-4.418,0-8,3.582-8,8v124.16c0,4.418,3.582,8,8,8s8-3.582,8-8v-124.16    C281.837,295.189,278.255,291.607,273.837,291.607z"/></g><g transform="matrix(0.13896383345127106 0 0 0.13896383345127106 80 193)" id="L1_35"><path d="M397.172,298.155c-0.268-2.482-1.679-4.696-3.815-5.987h-0.32c-34.64-20.8-61.36-66.88-74.88-94.16    c13.674,4.905,27.879,8.181,42.32,9.76c4.393,0.47,8.335-2.711,8.805-7.104c0.324-3.034-1.105-5.987-3.685-7.616    c-33.68-21.6-52.48-61.6-60.88-84.24c3.624,0.808,7.327,1.211,11.04,1.2c6.327,0.032,12.609-1.051,18.56-3.2    c4.103-1.638,6.102-6.293,4.464-10.396c-0.677-1.695-1.913-3.108-3.503-4.004c-32.8-18.48-53.6-86-53.76-86.72    c-1.056-3.498-4.349-5.836-8-5.68c-3.651-0.156-6.944,2.182-8,5.68c0,0.64-20.88,68.16-53.76,86.72    c-3.85,2.168-5.212,7.047-3.044,10.897c0.896,1.59,2.309,2.827,4.004,3.503c5.95,2.151,12.233,3.234,18.56,3.2    c3.74,0.015,7.47-0.387,11.12-1.2c-8,22.64-27.12,62.56-60.88,84.24c-3.801,2.253-5.055,7.16-2.802,10.961    c1.738,2.932,5.143,4.441,8.482,3.759c14.441-1.582,28.645-4.857,42.32-9.76c-7.067,14.539-15.084,28.596-24,42.08    c-24-18.24-38.16-48-44.64-65.12c2.965,0.683,5.997,1.032,9.04,1.04c5.182,0.019,10.328-0.875,15.2-2.64    c3.374-1.321,5.038-5.126,3.717-8.5c-0.555-1.418-1.587-2.599-2.917-3.34c-26.88-15.12-43.84-70.4-44.08-70.96    c-1.047-3.468-4.708-5.431-8.176-4.384c-2.103,0.635-3.749,2.281-4.384,4.384c0,0.56-17.12,56-44.08,70.96    c-3.165,1.763-4.303,5.757-2.54,8.923c0.741,1.331,1.922,2.362,3.34,2.917c4.872,1.767,10.018,2.66,15.2,2.64    c3.04,0.018,6.072-0.304,9.04-0.96c-6.88,18.56-22.24,51.28-49.84,68.96c-3.016,2.007-3.834,6.08-1.826,9.096    c1.32,1.983,3.612,3.095,5.987,2.904c11.849-1.284,23.504-3.97,34.72-8c-11.52,22.4-33.12,60.08-61.52,77.12    c-3.114,1.851-4.138,5.877-2.287,8.991c1.053,1.772,2.878,2.945,4.927,3.169c0,0,4.96,0.56,12.56,0.56    c26.062,0.4,51.798-5.82,74.8-18.08v-52.64c0-4.418,3.582-8,8-8s8,3.582,8,8v52.64c22.866,12.153,48.427,18.344,74.32,18    c8,0,12.4-0.48,12.56-0.56c3.602-0.393,6.202-3.632,5.809-7.233c-0.224-2.049-1.397-3.873-3.169-4.927    c-8.937-5.614-17.019-12.485-24-20.4c20.051-3.076,39.362-9.829,56.96-19.92v-72.88c0-4.418,3.582-8,8-8s8,3.582,8,8v72.88    c28.326,15.505,60.192,23.389,92.48,22.88c9.36,0,15.12-0.64,15.36-0.64C394.47,306.493,397.646,302.548,397.172,298.155z"/><path d="M135.757,324.007c-4.418,0-8,3.582-8,8v91.76c0,4.418,3.582,8,8,8s8-3.582,8-8v-91.76    C143.757,327.589,140.175,324.007,135.757,324.007z"/><path d="M273.837,291.607c-4.418,0-8,3.582-8,8v124.16c0,4.418,3.582,8,8,8s8-3.582,8-8v-124.16    C281.837,295.189,278.255,291.607,273.837,291.607z"/></g><g transform="matrix(0.13896383345127106 0 0 0.13896383345127106 98 329)" id="L1_36"><path d="M397.172,298.155c-0.268-2.482-1.679-4.696-3.815-5.987h-0.32c-34.64-20.8-61.36-66.88-74.88-94.16    c13.674,4.905,27.879,8.181,42.32,9.76c4.393,0.47,8.335-2.711,8.805-7.104c0.324-3.034-1.105-5.987-3.685-7.616    c-33.68-21.6-52.48-61.6-60.88-84.24c3.624,0.808,7.327,1.211,11.04,1.2c6.327,0.032,12.609-1.051,18.56-3.2    c4.103-1.638,6.102-6.293,4.464-10.396c-0.677-1.695-1.913-3.108-3.503-4.004c-32.8-18.48-53.6-86-53.76-86.72    c-1.056-3.498-4.349-5.836-8-5.68c-3.651-0.156-6.944,2.182-8,5.68c0,0.64-20.88,68.16-53.76,86.72    c-3.85,2.168-5.212,7.047-3.044,10.897c0.896,1.59,2.309,2.827,4.004,3.503c5.95,2.151,12.233,3.234,18.56,3.2    c3.74,0.015,7.47-0.387,11.12-1.2c-8,22.64-27.12,62.56-60.88,84.24c-3.801,2.253-5.055,7.16-2.802,10.961    c1.738,2.932,5.143,4.441,8.482,3.759c14.441-1.582,28.645-4.857,42.32-9.76c-7.067,14.539-15.084,28.596-24,42.08    c-24-18.24-38.16-48-44.64-65.12c2.965,0.683,5.997,1.032,9.04,1.04c5.182,0.019,10.328-0.875,15.2-2.64    c3.374-1.321,5.038-5.126,3.717-8.5c-0.555-1.418-1.587-2.599-2.917-3.34c-26.88-15.12-43.84-70.4-44.08-70.96    c-1.047-3.468-4.708-5.431-8.176-4.384c-2.103,0.635-3.749,2.281-4.384,4.384c0,0.56-17.12,56-44.08,70.96    c-3.165,1.763-4.303,5.757-2.54,8.923c0.741,1.331,1.922,2.362,3.34,2.917c4.872,1.767,10.018,2.66,15.2,2.64    c3.04,0.018,6.072-0.304,9.04-0.96c-6.88,18.56-22.24,51.28-49.84,68.96c-3.016,2.007-3.834,6.08-1.826,9.096    c1.32,1.983,3.612,3.095,5.987,2.904c11.849-1.284,23.504-3.97,34.72-8c-11.52,22.4-33.12,60.08-61.52,77.12    c-3.114,1.851-4.138,5.877-2.287,8.991c1.053,1.772,2.878,2.945,4.927,3.169c0,0,4.96,0.56,12.56,0.56    c26.062,0.4,51.798-5.82,74.8-18.08v-52.64c0-4.418,3.582-8,8-8s8,3.582,8,8v52.64c22.866,12.153,48.427,18.344,74.32,18    c8,0,12.4-0.48,12.56-0.56c3.602-0.393,6.202-3.632,5.809-7.233c-0.224-2.049-1.397-3.873-3.169-4.927    c-8.937-5.614-17.019-12.485-24-20.4c20.051-3.076,39.362-9.829,56.96-19.92v-72.88c0-4.418,3.582-8,8-8s8,3.582,8,8v72.88    c28.326,15.505,60.192,23.389,92.48,22.88c9.36,0,15.12-0.64,15.36-0.64C394.47,306.493,397.646,302.548,397.172,298.155z"/><path d="M135.757,324.007c-4.418,0-8,3.582-8,8v91.76c0,4.418,3.582,8,8,8s8-3.582,8-8v-91.76    C143.757,327.589,140.175,324.007,135.757,324.007z"/><path d="M273.837,291.607c-4.418,0-8,3.582-8,8v124.16c0,4.418,3.582,8,8,8s8-3.582,8-8v-124.16    C281.837,295.189,278.255,291.607,273.837,291.607z"/></g><g transform="matrix(0.13896383345127106 0 0 0.13896383345127106 248 268)" id="L1_37"><path d="M397.172,298.155c-0.268-2.482-1.679-4.696-3.815-5.987h-0.32c-34.64-20.8-61.36-66.88-74.88-94.16    c13.674,4.905,27.879,8.181,42.32,9.76c4.393,0.47,8.335-2.711,8.805-7.104c0.324-3.034-1.105-5.987-3.685-7.616    c-33.68-21.6-52.48-61.6-60.88-84.24c3.624,0.808,7.327,1.211,11.04,1.2c6.327,0.032,12.609-1.051,18.56-3.2    c4.103-1.638,6.102-6.293,4.464-10.396c-0.677-1.695-1.913-3.108-3.503-4.004c-32.8-18.48-53.6-86-53.76-86.72    c-1.056-3.498-4.349-5.836-8-5.68c-3.651-0.156-6.944,2.182-8,5.68c0,0.64-20.88,68.16-53.76,86.72    c-3.85,2.168-5.212,7.047-3.044,10.897c0.896,1.59,2.309,2.827,4.004,3.503c5.95,2.151,12.233,3.234,18.56,3.2    c3.74,0.015,7.47-0.387,11.12-1.2c-8,22.64-27.12,62.56-60.88,84.24c-3.801,2.253-5.055,7.16-2.802,10.961    c1.738,2.932,5.143,4.441,8.482,3.759c14.441-1.582,28.645-4.857,42.32-9.76c-7.067,14.539-15.084,28.596-24,42.08    c-24-18.24-38.16-48-44.64-65.12c2.965,0.683,5.997,1.032,9.04,1.04c5.182,0.019,10.328-0.875,15.2-2.64    c3.374-1.321,5.038-5.126,3.717-8.5c-0.555-1.418-1.587-2.599-2.917-3.34c-26.88-15.12-43.84-70.4-44.08-70.96    c-1.047-3.468-4.708-5.431-8.176-4.384c-2.103,0.635-3.749,2.281-4.384,4.384c0,0.56-17.12,56-44.08,70.96    c-3.165,1.763-4.303,5.757-2.54,8.923c0.741,1.331,1.922,2.362,3.34,2.917c4.872,1.767,10.018,2.66,15.2,2.64    c3.04,0.018,6.072-0.304,9.04-0.96c-6.88,18.56-22.24,51.28-49.84,68.96c-3.016,2.007-3.834,6.08-1.826,9.096    c1.32,1.983,3.612,3.095,5.987,2.904c11.849-1.284,23.504-3.97,34.72-8c-11.52,22.4-33.12,60.08-61.52,77.12    c-3.114,1.851-4.138,5.877-2.287,8.991c1.053,1.772,2.878,2.945,4.927,3.169c0,0,4.96,0.56,12.56,0.56    c26.062,0.4,51.798-5.82,74.8-18.08v-52.64c0-4.418,3.582-8,8-8s8,3.582,8,8v52.64c22.866,12.153,48.427,18.344,74.32,18    c8,0,12.4-0.48,12.56-0.56c3.602-0.393,6.202-3.632,5.809-7.233c-0.224-2.049-1.397-3.873-3.169-4.927    c-8.937-5.614-17.019-12.485-24-20.4c20.051-3.076,39.362-9.829,56.96-19.92v-72.88c0-4.418,3.582-8,8-8s8,3.582,8,8v72.88    c28.326,15.505,60.192,23.389,92.48,22.88c9.36,0,15.12-0.64,15.36-0.64C394.47,306.493,397.646,302.548,397.172,298.155z"/><path d="M135.757,324.007c-4.418,0-8,3.582-8,8v91.76c0,4.418,3.582,8,8,8s8-3.582,8-8v-91.76    C143.757,327.589,140.175,324.007,135.757,324.007z"/><path d="M273.837,291.607c-4.418,0-8,3.582-8,8v124.16c0,4.418,3.582,8,8,8s8-3.582,8-8v-124.16    C281.837,295.189,278.255,291.607,273.837,291.607z"/></g></defs><g fill="rgba(121,85,72,0.25)"><pattern id="pattern_L1_32" width="350" height="350" patternUnits="userSpaceOnUse"><use xlink:href="#L1_32" x="-350" y="-350"/><use xlink:href="#L1_32" x="0" y="-350"/><use xlink:href="#L1_32" x="350" y="-350"/><use xlink:href="#L1_32" x="-350" y="0"/><use xlink:href="#L1_32" x="0" y="0"/><use xlink:href="#L1_32" x="350" y="0"/><use xlink:href="#L1_32" x="-350" y="350"/><use xlink:href="#L1_32" x="0" y="350"/><use xlink:href="#L1_32" x="350" y="350"/></pattern><rect x="0" y="0" width="100%" height="100%" fill="url(#pattern_L1_32)"/></g><g fill="rgba(121,85,72,0.25)"><pattern id="pattern_L1_33" width="350" height="350" patternUnits="userSpaceOnUse"><use xlink:href="#L1_33" x="-350" y="-350"/><use xlink:href="#L1_33" x="0" y="-350"/><use xlink:href="#L1_33" x="350" y="-350"/><use xlink:href="#L1_33" x="-350" y="0"/><use xlink:href="#L1_33" x="0" y="0"/><use xlink:href="#L1_33" x="350" y="0"/><use xlink:href="#L1_33" x="-350" y="350"/><use xlink:href="#L1_33" x="0" y="350"/><use xlink:href="#L1_33" x="350" y="350"/></pattern><rect x="0" y="0" width="100%" height="100%" fill="url(#pattern_L1_33)"/></g><g fill="rgba(121,85,72,0.25)"><pattern id="pattern_L1_34" width="350" height="350" patternUnits="userSpaceOnUse"><use xlink:href="#L1_34" x="-350" y="-350"/><use xlink:href="#L1_34" x="0" y="-350"/><use xlink:href="#L1_34" x="350" y="-350"/><use xlink:href="#L1_34" x="-350" y="0"/><use xlink:href="#L1_34" x="0" y="0"/><use xlink:href="#L1_34" x="350" y="0"/><use xlink:href="#L1_34" x="-350" y="350"/><use xlink:href="#L1_34" x="0" y="350"/><use xlink:href="#L1_34" x="350" y="350"/></pattern><rect x="0" y="0" width="100%" height="100%" fill="url(#pattern_L1_34)"/></g><g fill="rgba(121,85,72,0.25)"><pattern id="pattern_L1_35" width="350" height="350" patternUnits="userSpaceOnUse"><use xlink:href="#L1_35" x="-350" y="-350"/><use xlink:href="#L1_35" x="0" y="-350"/><use xlink:href="#L1_35" x="350" y="-350"/><use xlink:href="#L1_35" x="-350" y="0"/><use xlink:href="#L1_35" x="0" y="0"/><use xlink:href="#L1_35" x="350" y="0"/><use xlink:href="#L1_35" x="-350" y="350"/><use xlink:href="#L1_35" x="0" y="350"/><use xlink:href="#L1_35" x="350" y="350"/></pattern><rect x="0" y="0" width="100%" height="100%" fill="url(#pattern_L1_35)"/></g><g fill="rgba(121,85,72,0.25)"><pattern id="pattern_L1_36" width="350" height="350" patternUnits="userSpaceOnUse"><use xlink:href="#L1_36" x="-350" y="-350"/><use xlink:href="#L1_36" x="0" y="-350"/><use xlink:href="#L1_36" x="350" y="-350"/><use xlink:href="#L1_36" x="-350" y="0"/><use xlink:href="#L1_36" x="0" y="0"/><use xlink:href="#L1_36" x="350" y="0"/><use xlink:href="#L1_36" x="-350" y="350"/><use xlink:href="#L1_36" x="0" y="350"/><use xlink:href="#L1_36" x="350" y="350"/></pattern><rect x="0" y="0" width="100%" height="100%" fill="url(#pattern_L1_36)"/></g><g fill="rgba(121,85,72,0.25)"><pattern id="pattern_L1_37" width="350" height="350" patternUnits="userSpaceOnUse"><use xlink:href="#L1_37" x="-350" y="-350"/><use xlink:href="#L1_37" x="0" y="-350"/><use xlink:href="#L1_37" x="350" y="-350"/><use xlink:href="#L1_37" x="-350" y="0"/><use xlink:href="#L1_37" x="0" y="0"/><use xlink:href="#L1_37" x="350" y="0"/><use xlink:href="#L1_37" x="-350" y="350"/><use xlink:href="#L1_37" x="0" y="350"/><use xlink:href="#L1_37" x="350" y="350"/></pattern><rect x="0" y="0" width="100%" height="100%" fill="url(#pattern_L1_37)"/></g></svg>
