<svg xmlns="http://www.w3.org/2000/svg" id="Svg" width="256" height="256">
  <rect x="0" y="0" width="256" height="256" fill="rgba(255, 245, 158, 0.5)"/>
				<defs>
					
				<g stroke="#79554840" fill="#79554840" transform="matrix(1,0,0,1,-3,-5)" id="gSktsq4kzh1ct"><g><path d="M 7.5996094 4 C 5.6113844 4 4 5.8460887 4 8 C 4 9.9649483 5.2638759 11.656709 6.9941406 11.941406 C 6.9764731 12.834745 6.8941399 13.80293 6.5 14 L 8.5 14 C 8.1109463 13.805473 8.0269681 12.858329 8.0078125 11.974609 C 9.8533154 11.854613 11.25 10.176774 11.25 8.25 C 11.25 6.0960887 9.5878342 4 7.5996094 4 z M 7.5 4.5 C 8.9911689 4.5 10 6.5 10 8 C 10 9.25 8.5 10.75 7.25 10.75 C 5.7588311 10.75 4.5 9.7120711 4.5 8 C 4.5 5.9531067 6.0088311 4.5 7.5 4.5 z M 10 13 A 1 0.5 0 0 0 9 13.5 A 1 0.5 0 0 0 10 14 A 1 0.5 0 0 0 11 13.5 A 1 0.5 0 0 0 10 13 z M 12.197266 13.25 A 0.75 0.375 0 0 0 11.5 13.625 A 0.75 0.375 0 0 0 12.25 14 A 0.75 0.375 0 0 0 13 13.625 A 0.75 0.375 0 0 0 12.25 13.25 A 0.75 0.375 0 0 0 12.197266 13.25 z "/></g></g></defs>
				<g>
				<use xmlns:ns1="http://www.w3.org/1999/xlink" ns1:href="#gSktsq4kzh1ct" x="81.05339117455428" y="105.27723109158069"/><use xmlns:ns2="http://www.w3.org/1999/xlink" ns2:href="#gSktsq4kzh1ct" x="48.996454010657864" y="202.34481986492722"/><use xmlns:ns3="http://www.w3.org/1999/xlink" ns3:href="#gSktsq4kzh1ct" x="187.4187853545469" y="139.98770434515103"/><use xmlns:ns4="http://www.w3.org/1999/xlink" ns4:href="#gSktsq4kzh1ct" x="25.566379800724363" y="122.49791655026922"/><use xmlns:ns5="http://www.w3.org/1999/xlink" ns5:href="#gSktsq4kzh1ct" x="281.56637980072435" y="122.49791655026922"/><use xmlns:ns6="http://www.w3.org/1999/xlink" ns6:href="#gSktsq4kzh1ct" x="109.90483917379828" y="56.75335061151999"/><use xmlns:ns7="http://www.w3.org/1999/xlink" ns7:href="#gSktsq4kzh1ct" x="122.47042341091247" y="176.10420883947484"/><use xmlns:ns8="http://www.w3.org/1999/xlink" ns8:href="#gSktsq4kzh1ct" x="200.4561407119423" y="239.32489876437717"/><use xmlns:ns9="http://www.w3.org/1999/xlink" ns9:href="#gSktsq4kzh1ct" x="200.4561407119423" y="-16.675101235622833"/><use xmlns:ns10="http://www.w3.org/1999/xlink" ns10:href="#gSktsq4kzh1ct" x="78.54214672394033" y="183.79026270171659"/><use xmlns:ns11="http://www.w3.org/1999/xlink" ns11:href="#gSktsq4kzh1ct" x="178.54406105040283" y="74.42202208576109"/><use xmlns:ns12="http://www.w3.org/1999/xlink" ns12:href="#gSktsq4kzh1ct" x="253.860115988341" y="110.4837009858457"/><use xmlns:ns13="http://www.w3.org/1999/xlink" ns13:href="#gSktsq4kzh1ct" x="-2.1398840116590065" y="110.4837009858457"/><use xmlns:ns14="http://www.w3.org/1999/xlink" ns14:href="#gSktsq4kzh1ct" x="132.87219123434693" y="35.38804850433255"/><use xmlns:ns15="http://www.w3.org/1999/xlink" ns15:href="#gSktsq4kzh1ct" x="87.5373083125593" y="215.7535010441224"/><use xmlns:ns16="http://www.w3.org/1999/xlink" ns16:href="#gSktsq4kzh1ct" x="83.81055244560889" y="46.19186217090688"/><use xmlns:ns17="http://www.w3.org/1999/xlink" ns17:href="#gSktsq4kzh1ct" x="60.66025999625222" y="49.56195580491247"/><use xmlns:ns18="http://www.w3.org/1999/xlink" ns18:href="#gSktsq4kzh1ct" x="87.68536247937244" y="249.3895178767031"/><use xmlns:ns19="http://www.w3.org/1999/xlink" ns19:href="#gSktsq4kzh1ct" x="87.68536247937244" y="-6.61048212329689"/><use xmlns:ns20="http://www.w3.org/1999/xlink" ns20:href="#gSktsq4kzh1ct" x="141.54009112561894" y="136.2791751451271"/><use xmlns:ns21="http://www.w3.org/1999/xlink" ns21:href="#gSktsq4kzh1ct" x="204.2937539816482" y="150.04856254652464"/><use xmlns:ns22="http://www.w3.org/1999/xlink" ns22:href="#gSktsq4kzh1ct" x="150.13687384089246" y="87.5788213402925"/><use xmlns:ns23="http://www.w3.org/1999/xlink" ns23:href="#gSktsq4kzh1ct" x="15.019633889769445" y="151.0756608115984"/><use xmlns:ns24="http://www.w3.org/1999/xlink" ns24:href="#gSktsq4kzh1ct" x="271.01963388976947" y="151.0756608115984"/><use xmlns:ns25="http://www.w3.org/1999/xlink" ns25:href="#gSktsq4kzh1ct" x="215.2636499013086" y="27.148070144585386"/><use xmlns:ns26="http://www.w3.org/1999/xlink" ns26:href="#gSktsq4kzh1ct" x="215.2636499013086" y="283.1480701445854"/><use xmlns:ns27="http://www.w3.org/1999/xlink" ns27:href="#gSktsq4kzh1ct" x="138.60620782368431" y="29.788843650680423"/><use xmlns:ns28="http://www.w3.org/1999/xlink" ns28:href="#gSktsq4kzh1ct" x="138.60620782368431" y="285.7888436506804"/><use xmlns:ns29="http://www.w3.org/1999/xlink" ns29:href="#gSktsq4kzh1ct" x="162.11067636266355" y="233.8702248516943"/><use xmlns:ns30="http://www.w3.org/1999/xlink" ns30:href="#gSktsq4kzh1ct" x="162.11067636266355" y="-22.129775148305697"/><use xmlns:ns31="http://www.w3.org/1999/xlink" ns31:href="#gSktsq4kzh1ct" x="229.29881208579368" y="23.505439523773035"/><use xmlns:ns32="http://www.w3.org/1999/xlink" ns32:href="#gSktsq4kzh1ct" x="-26.701187914206315" y="23.505439523773035"/><use xmlns:ns33="http://www.w3.org/1999/xlink" ns33:href="#gSktsq4kzh1ct" x="-26.701187914206315" y="279.505439523773"/><use xmlns:ns34="http://www.w3.org/1999/xlink" ns34:href="#gSktsq4kzh1ct" x="229.29881208579368" y="279.505439523773"/><use xmlns:ns35="http://www.w3.org/1999/xlink" ns35:href="#gSktsq4kzh1ct" x="-26.701187914206315" y="279.505439523773"/><use xmlns:ns36="http://www.w3.org/1999/xlink" ns36:href="#gSktsq4kzh1ct" x="196.03804081045814" y="221.40057914770352"/><use xmlns:ns37="http://www.w3.org/1999/xlink" ns37:href="#gSktsq4kzh1ct" x="112.4710371670502" y="136.47223750292846"/><use xmlns:ns38="http://www.w3.org/1999/xlink" ns38:href="#gSktsq4kzh1ct" x="136.4234486514445" y="204.65114811301925"/><use xmlns:ns39="http://www.w3.org/1999/xlink" ns39:href="#gSktsq4kzh1ct" x="170.89637747954862" y="190.29054202197196"/><use xmlns:ns40="http://www.w3.org/1999/xlink" ns40:href="#gSktsq4kzh1ct" x="135.7873492451218" y="249.24221458864955"/><use xmlns:ns41="http://www.w3.org/1999/xlink" ns41:href="#gSktsq4kzh1ct" x="135.7873492451218" y="-6.757785411350454"/><use xmlns:ns42="http://www.w3.org/1999/xlink" ns42:href="#gSktsq4kzh1ct" x="113.23967583951222" y="9.965202598420529"/><use xmlns:ns43="http://www.w3.org/1999/xlink" ns43:href="#gSktsq4kzh1ct" x="113.23967583951222" y="265.96520259842055"/><use xmlns:ns44="http://www.w3.org/1999/xlink" ns44:href="#gSktsq4kzh1ct" x="3.7897678835750406" y="253.5273038674503"/><use xmlns:ns45="http://www.w3.org/1999/xlink" ns45:href="#gSktsq4kzh1ct" x="259.78976788357505" y="253.5273038674503"/><use xmlns:ns46="http://www.w3.org/1999/xlink" ns46:href="#gSktsq4kzh1ct" x="259.78976788357505" y="-2.472696132549686"/><use xmlns:ns47="http://www.w3.org/1999/xlink" ns47:href="#gSktsq4kzh1ct" x="3.7897678835750406" y="-2.472696132549686"/><use xmlns:ns48="http://www.w3.org/1999/xlink" ns48:href="#gSktsq4kzh1ct" x="259.78976788357505" y="-2.472696132549686"/><use xmlns:ns49="http://www.w3.org/1999/xlink" ns49:href="#gSktsq4kzh1ct" x="242.41932648556306" y="217.99344240373267"/><use xmlns:ns50="http://www.w3.org/1999/xlink" ns50:href="#gSktsq4kzh1ct" x="-13.580673514436938" y="217.99344240373267"/><use xmlns:ns51="http://www.w3.org/1999/xlink" ns51:href="#gSktsq4kzh1ct" x="84.72185969580832" y="19.977702283155963"/><use xmlns:ns52="http://www.w3.org/1999/xlink" ns52:href="#gSktsq4kzh1ct" x="84.72185969580832" y="275.97770228315596"/><use xmlns:ns53="http://www.w3.org/1999/xlink" ns53:href="#gSktsq4kzh1ct" x="15.492624792387495" y="15.221990227663687"/><use xmlns:ns54="http://www.w3.org/1999/xlink" ns54:href="#gSktsq4kzh1ct" x="271.4926247923875" y="15.221990227663687"/><use xmlns:ns55="http://www.w3.org/1999/xlink" ns55:href="#gSktsq4kzh1ct" x="271.4926247923875" y="271.2219902276637"/><use xmlns:ns56="http://www.w3.org/1999/xlink" ns56:href="#gSktsq4kzh1ct" x="15.492624792387495" y="271.2219902276637"/><use xmlns:ns57="http://www.w3.org/1999/xlink" ns57:href="#gSktsq4kzh1ct" x="271.4926247923875" y="271.2219902276637"/><use xmlns:ns58="http://www.w3.org/1999/xlink" ns58:href="#gSktsq4kzh1ct" x="194.40975527888398" y="171.68300245362482"/><use xmlns:ns59="http://www.w3.org/1999/xlink" ns59:href="#gSktsq4kzh1ct" x="39.14655337562051" y="152.2330290068881"/><use xmlns:ns60="http://www.w3.org/1999/xlink" ns60:href="#gSktsq4kzh1ct" x="171.0722476246573" y="45.35078313198298"/><use xmlns:ns61="http://www.w3.org/1999/xlink" ns61:href="#gSktsq4kzh1ct" x="111.78212170771457" y="100.7667149195753"/><use xmlns:ns62="http://www.w3.org/1999/xlink" ns62:href="#gSktsq4kzh1ct" x="36.623791655562314" y="6.622592405554558"/><use xmlns:ns63="http://www.w3.org/1999/xlink" ns63:href="#gSktsq4kzh1ct" x="36.623791655562314" y="262.62259240555454"/><use xmlns:ns64="http://www.w3.org/1999/xlink" ns64:href="#gSktsq4kzh1ct" x="113.56120406331735" y="201.40345955039155"/><use xmlns:ns65="http://www.w3.org/1999/xlink" ns65:href="#gSktsq4kzh1ct" x="69.90020480374477" y="130.8641305204804"/><use xmlns:ns66="http://www.w3.org/1999/xlink" ns66:href="#gSktsq4kzh1ct" x="42.16799260102754" y="242.48475245350315"/><use xmlns:ns67="http://www.w3.org/1999/xlink" ns67:href="#gSktsq4kzh1ct" x="42.16799260102754" y="-13.515247546496852"/><use xmlns:ns68="http://www.w3.org/1999/xlink" ns68:href="#gSktsq4kzh1ct" x="4.292887236681746" y="177.66623109801722"/><use xmlns:ns69="http://www.w3.org/1999/xlink" ns69:href="#gSktsq4kzh1ct" x="260.29288723668174" y="177.66623109801722"/><use xmlns:ns70="http://www.w3.org/1999/xlink" ns70:href="#gSktsq4kzh1ct" x="143.51878214123101" y="167.18128786709462"/><use xmlns:ns71="http://www.w3.org/1999/xlink" ns71:href="#gSktsq4kzh1ct" x="219.76273672971678" y="110.172232116757"/><use xmlns:ns72="http://www.w3.org/1999/xlink" ns72:href="#gSktsq4kzh1ct" x="38.73532472124332" y="93.33494014240077"/><use xmlns:ns73="http://www.w3.org/1999/xlink" ns73:href="#gSktsq4kzh1ct" x="116.262359280538" y="88.74244262872479"/><use xmlns:ns74="http://www.w3.org/1999/xlink" ns74:href="#gSktsq4kzh1ct" x="13.66065501642793" y="53.86671721367112"/><use xmlns:ns75="http://www.w3.org/1999/xlink" ns75:href="#gSktsq4kzh1ct" x="269.66065501642794" y="53.86671721367112"/><use xmlns:ns76="http://www.w3.org/1999/xlink" ns76:href="#gSktsq4kzh1ct" x="188.86590782996277" y="211.4227099288398"/><use xmlns:ns77="http://www.w3.org/1999/xlink" ns77:href="#gSktsq4kzh1ct" x="207.25730802480373" y="73.09903492468365"/><use xmlns:ns78="http://www.w3.org/1999/xlink" ns78:href="#gSktsq4kzh1ct" x="22.70784944194311" y="219.01431209697952"/><use xmlns:ns79="http://www.w3.org/1999/xlink" ns79:href="#gSktsq4kzh1ct" x="278.7078494419431" y="219.01431209697952"/><use xmlns:ns80="http://www.w3.org/1999/xlink" ns80:href="#gSktsq4kzh1ct" x="164.3972792783663" y="101.88057874950904"/><use xmlns:ns81="http://www.w3.org/1999/xlink" ns81:href="#gSktsq4kzh1ct" x="70.18947794695372" y="85.26682052939174"/><use xmlns:ns82="http://www.w3.org/1999/xlink" ns82:href="#gSktsq4kzh1ct" x="239.72204903385804" y="139.10587077925152"/><use xmlns:ns83="http://www.w3.org/1999/xlink" ns83:href="#gSktsq4kzh1ct" x="-16.277950966141958" y="139.10587077925152"/><use xmlns:ns84="http://www.w3.org/1999/xlink" ns84:href="#gSktsq4kzh1ct" x="246.02318731882409" y="93.53745841207933"/><use xmlns:ns85="http://www.w3.org/1999/xlink" ns85:href="#gSktsq4kzh1ct" x="-9.976812681175915" y="93.53745841207933"/><use xmlns:ns86="http://www.w3.org/1999/xlink" ns86:href="#gSktsq4kzh1ct" x="145.24500294220906" y="122.71605866472555"/><use xmlns:ns87="http://www.w3.org/1999/xlink" ns87:href="#gSktsq4kzh1ct" x="171.45684299147035" y="24.140611066696028"/><use xmlns:ns88="http://www.w3.org/1999/xlink" ns88:href="#gSktsq4kzh1ct" x="171.45684299147035" y="280.140611066696"/><use xmlns:ns89="http://www.w3.org/1999/xlink" ns89:href="#gSktsq4kzh1ct" x="124.38785116616907" y="239.84924766845543"/><use xmlns:ns90="http://www.w3.org/1999/xlink" ns90:href="#gSktsq4kzh1ct" x="124.38785116616907" y="-16.150752331544567"/><use xmlns:ns91="http://www.w3.org/1999/xlink" ns91:href="#gSktsq4kzh1ct" x="250.8056801090319" y="180.39450658744997"/><use xmlns:ns92="http://www.w3.org/1999/xlink" ns92:href="#gSktsq4kzh1ct" x="-5.194319890968103" y="180.39450658744997"/><use xmlns:ns93="http://www.w3.org/1999/xlink" ns93:href="#gSktsq4kzh1ct" x="53.718517787843" y="115.58532454258595"/><use xmlns:ns94="http://www.w3.org/1999/xlink" ns94:href="#gSktsq4kzh1ct" x="248.4467120058507" y="36.33063918950239"/><use xmlns:ns95="http://www.w3.org/1999/xlink" ns95:href="#gSktsq4kzh1ct" x="-7.5532879941492865" y="36.33063918950239"/><use xmlns:ns96="http://www.w3.org/1999/xlink" ns96:href="#gSktsq4kzh1ct" x="212.2983520150167" y="57.74879839275392"/><use xmlns:ns97="http://www.w3.org/1999/xlink" ns97:href="#gSktsq4kzh1ct" x="25.428427154881597" y="87.47030003524779"/><use xmlns:ns98="http://www.w3.org/1999/xlink" ns98:href="#gSktsq4kzh1ct" x="281.4284271548816" y="87.47030003524779"/><use xmlns:ns99="http://www.w3.org/1999/xlink" ns99:href="#gSktsq4kzh1ct" x="36.61771340791103" y="181.21020873553206"/><use xmlns:ns100="http://www.w3.org/1999/xlink" ns100:href="#gSktsq4kzh1ct" x="242.17408481730573" y="253.4636615697721"/><use xmlns:ns101="http://www.w3.org/1999/xlink" ns101:href="#gSktsq4kzh1ct" x="-13.825915182694274" y="253.4636615697721"/><use xmlns:ns102="http://www.w3.org/1999/xlink" ns102:href="#gSktsq4kzh1ct" x="-13.825915182694274" y="-2.536338430227886"/><use xmlns:ns103="http://www.w3.org/1999/xlink" ns103:href="#gSktsq4kzh1ct" x="242.17408481730573" y="-2.536338430227886"/><use xmlns:ns104="http://www.w3.org/1999/xlink" ns104:href="#gSktsq4kzh1ct" x="-13.825915182694274" y="-2.536338430227886"/></g>
			<desc>Created with Snap</desc></svg>
