<svg xmlns="http://www.w3.org/2000/svg" id="Svg" width="256" height="256" viewBox="0 0 256 256">
  <rect x="0" y="0" width="256" height="256" fill="rgba(255, 245, 158, 0.5)"/>
				<defs>
					
				<g fill="rgba(32, 148, 243, 0.5)" stroke="rgba(32, 148, 243, 0.25)" transform="matrix(1,0,0,1,-5,-10)" id="gSktsq4kzhnw"><g><path d="m 2.5,4 c -0.25,0 -0.75,0.75 -1,1.25 0,0.5 0.77771,1.66657 1,2 C 2.62087,7.55218 2.69913,7.82882 2.75,8.09375 2.61263,7.95866 2.45312,7.85156 2.25,7.75 c 0,0.75 0.25,1 0.5,2.25 0,1 0.75,3.75 0,5.25 0.5,0 1,-0.25 1.5,-0.25 C 4.5,12.5 4,11 3.25,9 3.1875,8.8125 3.12891,8.66406 3.0625,8.53125 3.05547,8.51719 3.03837,8.51355 3.03125,8.5 2.9874,8.08839 2.93039,7.63135 2.75,7 2.61652,6.4661 3.5,5.5 3.5,5 3.25,4.5 2.75,4 2.5,4 z m 3.75,0.75 c -0.25,0 -1,0.75 -1,1.25 0,0.25 0.5,1 0.5,1.5 0,0.60436 -0.37509,2.03973 -0.3125,3.0625 6e-4,0.01 -6.8e-4,0.021 0,0.031 C 5.07753,12.2747 5.20505,13.9748 5,15 c 0.5,0 1,0.25 1.5,0.25 -0.5,-1 -0.25,-1.5 -0.25,-4.75 0,-1 0,-0.75 0.25,-1.75 C 6.25,8.75 6,9 5.75,9.5 c 0.10434,-0.87712 0.34222,-1.84195 0.5,-2 0.5,-0.5 1,-1 1,-1.5 0,-0.5 -0.75,-1.25 -1,-1.25 z m -6,5.75 c 0,0.25 0.25,0.5 0.5,1.25 C 1,13.75 0.97479,13.74 1,15.5 1.5,15.25 1.8662,15.33 2.25,15.25 2.25,14 2.25,12 1,11 0.75,10.75 0.75,10.75 0.25,10.5 z M 8.75,9.75 C 8.75,10 8.5,11 8.25,12.25 8,13.5 8,14 8.25,15.5 8,15.5 7.3838,15.33 7,15.25 c 0.5,-0.5 -0.25,-1.5 0.75,-4 0.25,-0.75 0.25,-1 1,-1.5 z"/></g></g><g fill="rgba(32, 148, 243, 0.5)" stroke="rgba(32, 148, 243, 0.25)" transform="matrix(1,0,0,1,-5,-10)" id="gSktsq4kzhnx"><g><path d="m 6.5,4 c 0.25,0 0.75,0.75 1,1.25 0,0.5 -0.77771,1.66657 -1,2 C 6.37913,7.55218 6.30087,7.82882 6.25,8.09375 6.38737,7.95866 6.54688,7.85156 6.75,7.75 c 0,0.75 -0.25,1 -0.5,2.25 0,1 -0.75,3.75 0,5.25 C 5.75,15.25 5.25,15 4.75,15 4.5,12.5 5,11 5.75,9 5.8125,8.8125 5.87109,8.66406 5.9375,8.53125 5.94453,8.51719 5.96163,8.51355 5.96875,8.5 6.0126,8.08839 6.06961,7.63135 6.25,7 6.38348,6.4661 5.5,5.5 5.5,5 5.75,4.5 6.25,4 6.5,4 z M 2.75,4.75 c 0.25,0 1,0.75 1,1.25 0,0.25 -0.5,1 -0.5,1.5 0,0.60436 0.37509,2.03973 0.3125,3.0625 -6e-4,0.01 6.8e-4,0.021 0,0.031 C 3.92247,12.2747 3.79495,13.9748 4,15 3.5,15 3,15.25 2.5,15.25 3,14.25 2.75,13.75 2.75,10.5 2.75,9.5 2.75,9.75 2.5,8.75 2.75,8.75 3,9 3.25,9.5 3.14566,8.62288 2.90778,7.65805 2.75,7.5 2.25,7 1.75,6.5 1.75,6 c 0,-0.5 0.75,-1.25 1,-1.25 z m 6,5.75 C 8.75,10.75 8.5,11 8.25,11.75 8,13.75 8.02521,13.74 8,15.5 7.5,15.25 7.1338,15.33 6.75,15.25 6.75,14 6.75,12 8,11 8.25,10.75 8.25,10.75 8.75,10.5 z M 0.25,9.75 C 0.25,10 0.5,11 0.75,12.25 1,13.5 1,14 0.75,15.5 1,15.5 1.6162,15.33 2,15.25 1.5,14.75 2.25,13.75 1.25,11.25 1,10.5 1,10.25 0.25,9.75 z"/></g></g></defs>
				<g>
				<use xmlns:ns1="http://www.w3.org/1999/xlink" ns1:href="#gSktsq4kzhnw" x="48.1884112945794" y="144.80953464978015"/><use xmlns:ns2="http://www.w3.org/1999/xlink" ns2:href="#gSktsq4kzhnw" x="205.14068011288782" y="49.942965472244445"/><use xmlns:ns3="http://www.w3.org/1999/xlink" ns3:href="#gSktsq4kzhnw" x="213.45688255069567" y="142.1065351189221"/><use xmlns:ns4="http://www.w3.org/1999/xlink" ns4:href="#gSktsq4kzhnw" x="211.53047480390046" y="81.37682542322102"/><use xmlns:ns5="http://www.w3.org/1999/xlink" ns5:href="#gSktsq4kzhnx" x="105.64751930332955" y="76.09255517501205"/><use xmlns:ns6="http://www.w3.org/1999/xlink" ns6:href="#gSktsq4kzhnx" x="139.56314288867335" y="106.07913621231894"/><use xmlns:ns7="http://www.w3.org/1999/xlink" ns7:href="#gSktsq4kzhnx" x="74.978458539998" y="87.14214120200216"/><use xmlns:ns8="http://www.w3.org/1999/xlink" ns8:href="#gSktsq4kzhnw" x="238.31583996940847" y="252.19119046877015"/><use xmlns:ns9="http://www.w3.org/1999/xlink" ns9:href="#gSktsq4kzhnw" x="-17.684160030591528" y="252.19119046877015"/><use xmlns:ns10="http://www.w3.org/1999/xlink" ns10:href="#gSktsq4kzhnw" x="-17.684160030591528" y="-3.808809531229855"/><use xmlns:ns11="http://www.w3.org/1999/xlink" ns11:href="#gSktsq4kzhnw" x="238.31583996940847" y="-3.808809531229855"/><use xmlns:ns12="http://www.w3.org/1999/xlink" ns12:href="#gSktsq4kzhnw" x="-17.684160030591528" y="-3.808809531229855"/><use xmlns:ns13="http://www.w3.org/1999/xlink" ns13:href="#gSktsq4kzhnw" x="204.25216306472976" y="244.2043529704729"/><use xmlns:ns14="http://www.w3.org/1999/xlink" ns14:href="#gSktsq4kzhnw" x="204.25216306472976" y="-11.795647029527089"/><use xmlns:ns15="http://www.w3.org/1999/xlink" ns15:href="#gSktsq4kzhnw" x="144.81081259674684" y="169.49438442851925"/><use xmlns:ns16="http://www.w3.org/1999/xlink" ns16:href="#gSktsq4kzhnx" x="12.770274951808211" y="118.51443459611612"/><use xmlns:ns17="http://www.w3.org/1999/xlink" ns17:href="#gSktsq4kzhnx" x="268.77027495180823" y="118.51443459611612"/><use xmlns:ns18="http://www.w3.org/1999/xlink" ns18:href="#gSktsq4kzhnw" x="138.93360775483612" y="13.455289425186558"/><use xmlns:ns19="http://www.w3.org/1999/xlink" ns19:href="#gSktsq4kzhnw" x="138.93360775483612" y="269.45528942518655"/><use xmlns:ns20="http://www.w3.org/1999/xlink" ns20:href="#gSktsq4kzhnw" x="147.00985368332192" y="151.435974158852"/><use xmlns:ns21="http://www.w3.org/1999/xlink" ns21:href="#gSktsq4kzhnx" x="45.16719488461474" y="9.695322903695603"/><use xmlns:ns22="http://www.w3.org/1999/xlink" ns22:href="#gSktsq4kzhnx" x="45.16719488461474" y="265.6953229036956"/><use xmlns:ns23="http://www.w3.org/1999/xlink" ns23:href="#gSktsq4kzhnx" x="50.57041495958705" y="210.6219965091022"/><use xmlns:ns24="http://www.w3.org/1999/xlink" ns24:href="#gSktsq4kzhnw" x="19.398547628628897" y="246.12887068055863"/><use xmlns:ns25="http://www.w3.org/1999/xlink" ns25:href="#gSktsq4kzhnw" x="275.3985476286289" y="246.12887068055863"/><use xmlns:ns26="http://www.w3.org/1999/xlink" ns26:href="#gSktsq4kzhnw" x="275.3985476286289" y="-9.871129319441366"/><use xmlns:ns27="http://www.w3.org/1999/xlink" ns27:href="#gSktsq4kzhnw" x="19.398547628628897" y="-9.871129319441366"/><use xmlns:ns28="http://www.w3.org/1999/xlink" ns28:href="#gSktsq4kzhnw" x="275.3985476286289" y="-9.871129319441366"/><use xmlns:ns29="http://www.w3.org/1999/xlink" ns29:href="#gSktsq4kzhnx" x="88.65049105009652" y="46.511235225077066"/><use xmlns:ns30="http://www.w3.org/1999/xlink" ns30:href="#gSktsq4kzhnx" x="16.631738198268355" y="79.75057819978919"/><use xmlns:ns31="http://www.w3.org/1999/xlink" ns31:href="#gSktsq4kzhnx" x="272.63173819826835" y="79.75057819978919"/><use xmlns:ns32="http://www.w3.org/1999/xlink" ns32:href="#gSktsq4kzhnw" x="173.05403771758952" y="55.65752357074456"/><use xmlns:ns33="http://www.w3.org/1999/xlink" ns33:href="#gSktsq4kzhnx" x="19.158346034989897" y="215.3693162112277"/><use xmlns:ns34="http://www.w3.org/1999/xlink" ns34:href="#gSktsq4kzhnx" x="275.1583460349899" y="215.3693162112277"/><use xmlns:ns35="http://www.w3.org/1999/xlink" ns35:href="#gSktsq4kzhnw" x="80.04344394659644" y="144.28348667664264"/><use xmlns:ns36="http://www.w3.org/1999/xlink" ns36:href="#gSktsq4kzhnx" x="73.8698105095105" y="239.4052714002522"/><use xmlns:ns37="http://www.w3.org/1999/xlink" ns37:href="#gSktsq4kzhnx" x="73.8698105095105" y="-16.59472859974781"/><use xmlns:ns38="http://www.w3.org/1999/xlink" ns38:href="#gSktsq4kzhnw" x="246.51689292472713" y="59.62656557578027"/><use xmlns:ns39="http://www.w3.org/1999/xlink" ns39:href="#gSktsq4kzhnw" x="-9.48310707527287" y="59.62656557578027"/><use xmlns:ns40="http://www.w3.org/1999/xlink" ns40:href="#gSktsq4kzhnw" x="243.2688615699798" y="81.28846200247365"/><use xmlns:ns41="http://www.w3.org/1999/xlink" ns41:href="#gSktsq4kzhnw" x="-12.731138430020195" y="81.28846200247365"/><use xmlns:ns42="http://www.w3.org/1999/xlink" ns42:href="#gSktsq4kzhnx" x="138.2099028226386" y="236.92198081656397"/><use xmlns:ns43="http://www.w3.org/1999/xlink" ns43:href="#gSktsq4kzhnx" x="138.2099028226386" y="-19.078019183436027"/><use xmlns:ns44="http://www.w3.org/1999/xlink" ns44:href="#gSktsq4kzhnx" x="213.66146654135073" y="19.272558369938913"/><use xmlns:ns45="http://www.w3.org/1999/xlink" ns45:href="#gSktsq4kzhnx" x="213.66146654135073" y="275.2725583699389"/><use xmlns:ns46="http://www.w3.org/1999/xlink" ns46:href="#gSktsq4kzhnx" x="89.22127495912616" y="175.4604810598106"/><use xmlns:ns47="http://www.w3.org/1999/xlink" ns47:href="#gSktsq4kzhnx" x="119.46873698102142" y="185.9528459956858"/><use xmlns:ns48="http://www.w3.org/1999/xlink" ns48:href="#gSktsq4kzhnw" x="53.211964088459965" y="238.6015511975586"/><use xmlns:ns49="http://www.w3.org/1999/xlink" ns49:href="#gSktsq4kzhnw" x="53.211964088459965" y="-17.398448802441408"/><use xmlns:ns50="http://www.w3.org/1999/xlink" ns50:href="#gSktsq4kzhnw" x="112.70381934912622" y="217.02303655912482"/><use xmlns:ns51="http://www.w3.org/1999/xlink" ns51:href="#gSktsq4kzhnw" x="17.398083254253745" y="154.1413924816662"/><use xmlns:ns52="http://www.w3.org/1999/xlink" ns52:href="#gSktsq4kzhnw" x="273.3980832542537" y="154.1413924816662"/><use xmlns:ns53="http://www.w3.org/1999/xlink" ns53:href="#gSktsq4kzhnw" x="153.87032570831" y="203.40556675149224"/><use xmlns:ns54="http://www.w3.org/1999/xlink" ns54:href="#gSktsq4kzhnw" x="237.2023501907702" y="170.25577430614726"/><use xmlns:ns55="http://www.w3.org/1999/xlink" ns55:href="#gSktsq4kzhnw" x="-18.797649809229796" y="170.25577430614726"/><use xmlns:ns56="http://www.w3.org/1999/xlink" ns56:href="#gSktsq4kzhnw" x="107.27282793245361" y="19.717743584207803"/><use xmlns:ns57="http://www.w3.org/1999/xlink" ns57:href="#gSktsq4kzhnw" x="107.27282793245361" y="275.7177435842078"/><use xmlns:ns58="http://www.w3.org/1999/xlink" ns58:href="#gSktsq4kzhnx" x="56.03561946017435" y="179.16489215117628"/><use xmlns:ns59="http://www.w3.org/1999/xlink" ns59:href="#gSktsq4kzhnx" x="238.01080483955243" y="220.22003003967444"/><use xmlns:ns60="http://www.w3.org/1999/xlink" ns60:href="#gSktsq4kzhnx" x="-17.989195160447565" y="220.22003003967444"/><use xmlns:ns61="http://www.w3.org/1999/xlink" ns61:href="#gSktsq4kzhnx" x="141.56218676587184" y="82.61010781032063"/><use xmlns:ns62="http://www.w3.org/1999/xlink" ns62:href="#gSktsq4kzhnw" x="245.11670543119348" y="139.15866532608047"/><use xmlns:ns63="http://www.w3.org/1999/xlink" ns63:href="#gSktsq4kzhnw" x="-10.88329456880652" y="139.15866532608047"/><use xmlns:ns64="http://www.w3.org/1999/xlink" ns64:href="#gSktsq4kzhnw" x="111.1820355722629" y="108.19013122611287"/><use xmlns:ns65="http://www.w3.org/1999/xlink" ns65:href="#gSktsq4kzhnw" x="43.58437510290841" y="112.57076928131362"/><use xmlns:ns66="http://www.w3.org/1999/xlink" ns66:href="#gSktsq4kzhnx" x="57.028025385220275" y="51.064807858588566"/><use xmlns:ns67="http://www.w3.org/1999/xlink" ns67:href="#gSktsq4kzhnx" x="175.2941133413232" y="179.43579026267045"/><use xmlns:ns68="http://www.w3.org/1999/xlink" ns68:href="#gSktsq4kzhnx" x="9.278166207460423" y="185.27899097857465"/><use xmlns:ns69="http://www.w3.org/1999/xlink" ns69:href="#gSktsq4kzhnx" x="265.2781662074604" y="185.27899097857465"/><use xmlns:ns70="http://www.w3.org/1999/xlink" ns70:href="#gSktsq4kzhnw" x="179.72251346054077" y="88.07332116060678"/><use xmlns:ns71="http://www.w3.org/1999/xlink" ns71:href="#gSktsq4kzhnx" x="88.23839931466928" y="103.61325978154416"/><use xmlns:ns72="http://www.w3.org/1999/xlink" ns72:href="#gSktsq4kzhnx" x="243.82660170997022" y="27.695512220475756"/><use xmlns:ns73="http://www.w3.org/1999/xlink" ns73:href="#gSktsq4kzhnx" x="-12.17339829002978" y="27.695512220475756"/><use xmlns:ns74="http://www.w3.org/1999/xlink" ns74:href="#gSktsq4kzhnx" x="-12.17339829002978" y="283.69551222047573"/><use xmlns:ns75="http://www.w3.org/1999/xlink" ns75:href="#gSktsq4kzhnx" x="243.82660170997022" y="283.69551222047573"/><use xmlns:ns76="http://www.w3.org/1999/xlink" ns76:href="#gSktsq4kzhnx" x="-12.17339829002978" y="283.69551222047573"/><use xmlns:ns77="http://www.w3.org/1999/xlink" ns77:href="#gSktsq4kzhnx" x="101.08764474189665" y="245.21700437420185"/><use xmlns:ns78="http://www.w3.org/1999/xlink" ns78:href="#gSktsq4kzhnx" x="101.08764474189665" y="-10.78299562579815"/><use xmlns:ns79="http://www.w3.org/1999/xlink" ns79:href="#gSktsq4kzhnx" x="112.862339788653" y="142.769463179936"/><use xmlns:ns80="http://www.w3.org/1999/xlink" ns80:href="#gSktsq4kzhnw" x="170.00996249618288" y="241.21383155859957"/><use xmlns:ns81="http://www.w3.org/1999/xlink" ns81:href="#gSktsq4kzhnw" x="170.00996249618288" y="-14.786168441400434"/><use xmlns:ns82="http://www.w3.org/1999/xlink" ns82:href="#gSktsq4kzhnx" x="79.54998024906637" y="205.69676164839956"/><use xmlns:ns83="http://www.w3.org/1999/xlink" ns83:href="#gSktsq4kzhnw" x="207.73745834936136" y="169.8989066862577"/><use xmlns:ns84="http://www.w3.org/1999/xlink" ns84:href="#gSktsq4kzhnx" x="45.04202205765533" y="80.56127739713259"/><use xmlns:ns85="http://www.w3.org/1999/xlink" ns85:href="#gSktsq4kzhnw" x="8.024352927332636" y="36.844754303631625"/><use xmlns:ns86="http://www.w3.org/1999/xlink" ns86:href="#gSktsq4kzhnw" x="264.02435292733264" y="36.844754303631625"/><use xmlns:ns87="http://www.w3.org/1999/xlink" ns87:href="#gSktsq4kzhnx" x="239.75783326340445" y="105.24705269188176"/><use xmlns:ns88="http://www.w3.org/1999/xlink" ns88:href="#gSktsq4kzhnx" x="-16.24216673659555" y="105.24705269188176"/><use xmlns:ns89="http://www.w3.org/1999/xlink" ns89:href="#gSktsq4kzhnx" x="149.9303680689743" y="48.71519288356803"/><use xmlns:ns90="http://www.w3.org/1999/xlink" ns90:href="#gSktsq4kzhnw" x="16.14978758866964" y="15.79274947764161"/><use xmlns:ns91="http://www.w3.org/1999/xlink" ns91:href="#gSktsq4kzhnw" x="272.14978758866965" y="15.79274947764161"/><use xmlns:ns92="http://www.w3.org/1999/xlink" ns92:href="#gSktsq4kzhnw" x="272.14978758866965" y="271.7927494776416"/><use xmlns:ns93="http://www.w3.org/1999/xlink" ns93:href="#gSktsq4kzhnw" x="16.14978758866964" y="271.7927494776416"/><use xmlns:ns94="http://www.w3.org/1999/xlink" ns94:href="#gSktsq4kzhnw" x="272.14978758866965" y="271.7927494776416"/><use xmlns:ns95="http://www.w3.org/1999/xlink" ns95:href="#gSktsq4kzhnx" x="75.37100947433902" y="10.521378461075043"/><use xmlns:ns96="http://www.w3.org/1999/xlink" ns96:href="#gSktsq4kzhnx" x="75.37100947433902" y="266.521378461075"/><use xmlns:ns97="http://www.w3.org/1999/xlink" ns97:href="#gSktsq4kzhnw" x="182.02681944152698" y="147.8638813827595"/><use xmlns:ns98="http://www.w3.org/1999/xlink" ns98:href="#gSktsq4kzhnw" x="217.86048795592347" y="199.9996297285497"/><use xmlns:ns99="http://www.w3.org/1999/xlink" ns99:href="#gSktsq4kzhnx" x="189.92877495725423" y="216.06888724418621"/><use xmlns:ns100="http://www.w3.org/1999/xlink" ns100:href="#gSktsq4kzhnx" x="181.08680830560476" y="15.64091708113385"/><use xmlns:ns101="http://www.w3.org/1999/xlink" ns101:href="#gSktsq4kzhnx" x="181.08680830560476" y="271.64091708113386"/><use xmlns:ns102="http://www.w3.org/1999/xlink" ns102:href="#gSktsq4kzhnw" x="120.78398044821292" y="48.500462996866666"/><use xmlns:ns103="http://www.w3.org/1999/xlink" ns103:href="#gSktsq4kzhnw" x="201.69060535912223" y="112.14829050239366"/><use xmlns:ns104="http://www.w3.org/1999/xlink" ns104:href="#gSktsq4kzhnw" x="169.37583059605828" y="118.40501330616746"/></g>
			<desc>Created with Snap</desc></svg>
